# xmcd CD database file
#
# Track frame offsets:
#	150
#	19268
#	38135
#	56852
#	77292
#	95636
#	116830
#	136282
#	149617
#	167433
#
# Disc length: 2533 seconds
#
# Revision: 0
# Processed by: cddbd v1.5.2PL0 Copyright (c) Steve Scherf et al.
# Submitted via: CDex 1.60beta1
#
DISCID=8609e30a
DTITLE=PE'Z - キネマのジャズ
DYEAR=2011
DGENRE=Jazz
TTITLE0=HANA-BI
TTITLE1=マルサの女
TTITLE2=嵐を呼ぶ男
TTITLE3=七人の侍
TTITLE4=東京ブギウギ
TTITLE5=蒲田行進曲
TTITLE6=スローなブギにしてくれ
TTITLE7=男はつらいよ
TTITLE8=セーラー服と機関銃
TTITLE9=人間の証明のテーマ
EXTD=YEAR: 2011
EXTT0=
EXTT1=
EXTT2=
EXTT3=
EXTT4=
EXTT5=
EXTT6=
EXTT7=
EXTT8=
EXTT9=
PLAYORDER=
